<?xml version="1.0" encoding="utf-8"?>
<!-- Generator: Adobe Illustrator 17.1.0, SVG Export Plug-In . SVG Version: 6.00 Build 0)  -->
<!DOCTYPE svg PUBLIC "-//W3C//DTD SVG 1.1//EN" "http://www.w3.org/Graphics/SVG/1.1/DTD/svg11.dtd">
<svg version="1.1" id="Lager_1" xmlns="http://www.w3.org/2000/svg" xmlns:xlink="http://www.w3.org/1999/xlink" x="0px" y="0px"
	 viewBox="0 0 141.7 141.7" enable-background="new 0 0 141.7 141.7" xml:space="preserve">
<g>
	<g>
		<path fill="#FFFFFF" d="M141.9,69.8c0,29.1-24.8,49.8-70.9,49.8c-39.8,0-70.9-22.3-70.9-49.8c0-27.5,31.1-47.5,70.9-47.5
			C110.8,22.3,141.9,42.3,141.9,69.8z"/>
		<g>
			<polygon fill="#00684B" points="22.3,59.3 22.3,88.6 29.8,88.6 29.8,75.3 30.1,75.7 40.1,88.6 49.8,88.6 36.9,73.1 48.7,59.3 
				39.5,59.3 30.1,71.5 29.8,71.9 29.8,59.3 			"/>
			<polygon fill="#00684B" points="117.3,88.6 129.5,59.3 121.4,59.3 114,77.6 106.7,59.3 98.6,59.3 110.7,88.6 			"/>
			<path fill="#00684B" d="M73,68.2c0-5.7-3.7-9-10.2-9H51.3v29.3h7.4V76.6l0.3,0.5l7.3,11.4H82l2.1-5.2h11l1.9,5.2h7.9L93.7,59.3
				h-8.3l-8.5,22c-0.1,0.2-0.2,0.4-0.3,0.7c-0.9,2.4-1.7,3.5-2.6,3.5c-0.8,0-1.6-0.9-2.5-2.1l0,0l-5.2-6.7l0.3,0
				C70.4,75.7,73,72.5,73,68.2z M89.5,67.7L89.5,67.7L93,77.9H86L89.5,67.7z M59.6,72.6h-0.9v-7.7h0.9c2.4,0,5.6,0.4,5.6,3.9
				C65.2,72.2,62,72.6,59.6,72.6z"/>
			<path fill="#00684B" d="M137.8,70.8c0-24.3-29.6-43.5-66-43.5c-31.4,0-56.6,17.3-61.8,32.4c1.1-8.9,9.9-21.2,24.8-28.1
				c-20.4,7.7-31.1,22-31.1,38.4c0,13.1,8.3,24.9,21.7,33.2c11.9,7.9,28.3,12.8,46.4,12.8c5.1,0,10.1-0.4,14.9-1.1
				c12.8-1.5,22-5.2,29.7-10c2.4-1.5,4.7-3.2,6.8-4.9c-1.7,1.3-3.8,2.6-5.7,3.8c-11,5.8-25.8,8.5-42.4,8.5
				c-34.3,0-62.1-15.5-62.1-36.8c0-19.8,21.7-34.5,52.2-36.4c36.2-2.3,50.3,12.8,52,15.2c-7.4-11.1-22.6-19.7-52.7-18.6
				c-19.5,0.7-38.9,8.2-47.8,19.2C24.9,40.5,48,31,73.4,31c35.2,0,63.3,17.1,63.3,40c0,6.5-1.4,12.1-4.1,17
				C136,82.7,137.8,76.9,137.8,70.8z"/>
			<path fill="#00684B" d="M126.7,88.6c2,0,3.6-1.6,3.6-3.6c0-2-1.6-3.6-3.6-3.6c-2,0-3.6,1.6-3.6,3.6
				C123.1,87,124.7,88.6,126.7,88.6z M126.7,81.9c1.7,0,3.1,1.3,3.1,3c0,1.7-1.4,3-3.1,3c-1.7,0-3.1-1.3-3.1-3
				C123.7,83.2,125.1,81.9,126.7,81.9z"/>
			<path fill="#00684B" d="M125.9,85.1h0.8l1,1.9h0.7l-1-1.9c0.5,0,1.1-0.3,1.1-1.1c0-0.9-0.7-1.1-1.4-1.1h-1.7V87h0.6V85.1z
				 M125.9,83.5h1c0.5,0,0.9,0,0.9,0.6c0,0.6-0.8,0.5-1.3,0.5h-0.6V83.5z"/>
		</g>
	</g>
</g>
</svg>
