<?xml version="1.0" encoding="utf-8"?>
<!-- Generator: Adobe Illustrator 17.1.0, SVG Export Plug-In . SVG Version: 6.00 Build 0)  -->
<!DOCTYPE svg PUBLIC "-//W3C//DTD SVG 1.1//EN" "http://www.w3.org/Graphics/SVG/1.1/DTD/svg11.dtd">
<svg version="1.1" id="Lager_1" xmlns="http://www.w3.org/2000/svg" xmlns:xlink="http://www.w3.org/1999/xlink" x="0px" y="0px"
	 viewBox="0 0 606.4 815.7" enable-background="new 0 0 606.4 815.7" xml:space="preserve">
<g>
	<g>
		<g>
			<path fill="#FFFFFF" d="M606.3,26.9c0-14.9-12.9-26.9-28.7-26.9H28.9C13.1,0,0.2,12.1,0.2,26.9v635.9c-0.1,16.2,2.6,32,8.4,47.2
				c39,102.8,202.5,136,365.2,74.2c138.5-52.5,231.8-156.9,232.4-250.2c0,0,0-0.1,0-0.1V26.9z"/>
		</g>
	</g>
	<g>
		<g>
			<path fill="#0058A2" d="M232.7,412.3c162.7-61.7,326.2-28.5,365.2,74.2c0.3,0.7,0.5,1.4,0.7,2.1V32.4c0-14.5-12.5-26.2-28-26.2
				H35.8c-15.4,0-28,11.7-28,26.2v583.7C32.7,536.5,116.9,456.3,232.7,412.3z"/>
		</g>
	</g>
	<g>
		<path fill="#FFFFFF" d="M373.8,784.3c162.7-61.7,263-195,224.1-297.7c-39-102.7-202.5-135.9-365.2-74.2C70,474-30.4,607.3,8.6,710
			C47.5,812.8,211,846,373.8,784.3z"/>
		<path fill="#0058A2" d="M371.3,778.8C528.9,719,629.1,587,591.4,487.5c-37.7-99.5-199.2-128.9-356.8-69.1
			C76.9,478.2-22.7,608.2,15.2,707.7C52.9,807.2,213.5,838.6,371.3,778.8z"/>
		<path fill="#FFFFFF" d="M45.7,611.9c0,0,91.5,58.4,106.2,143c0,0,60.8-254.3,377.6-307.4c0,0-269.6-9.1-381.1,213
			C148.4,660.5,93.1,604.4,45.7,611.9z"/>
		<path fill="#FFFFFF" d="M477.7,516.5c8.3-3.1,12.5-12.5,9.3-20.7c-3.1-8.3-12.4-12.4-20.7-9.3c-8.3,3.1-12.5,12.4-9.4,20.7
			C460.1,515.5,469.4,519.7,477.7,516.5z"/>
		<path fill="#FFFFFF" d="M419.6,507.8c0,0-32.4,60.8,26.8,66.1c0,0,37.1,4.1,94.7-42.9c0,0-25.6,182.6-332.2,184.9
			c0,0,236.6-37.8,291.9-142.1c0,0-80.8,53.9-106-6.1C395,567.8,383,539.2,419.6,507.8z"/>
	</g>
	<g>
		<path fill="#FFFFFF" d="M563.5,684.1h-6.9v-3.7h18.4v3.7h-7v20.6h-4.4V684.1z"/>
		<path fill="#FFFFFF" d="M598.2,694.8c-0.1-3.1-0.3-6.9-0.3-10.2h-0.1c-0.8,3-1.8,6.3-2.9,9.3l-3.6,10.6H588l-3.3-10.4
			c-0.9-3.1-1.8-6.4-2.4-9.5h-0.1c-0.1,3.2-0.3,7-0.4,10.4l-0.6,9.8h-4.1l1.6-24.4h5.9l3.2,9.8c0.9,2.9,1.6,5.7,2.2,8.5h0.1
			c0.6-2.6,1.5-5.6,2.4-8.5l3.4-9.8h5.8l1.4,24.4h-4.3L598.2,694.8z"/>
	</g>
	<rect x="0" y="0" fill="none" width="606.4" height="815.7"/>
	<g>
		<path fill="#FFFFFF" d="M49.1,326.2l3.5,15.5c0.8,3.7,1.6,7.4,2.2,11.1H55c0.7-3.7,1.8-7.5,2.7-11l4.5-15.6h7l4.3,15.2
			c1.1,4,2,7.7,2.7,11.4h0.1c0.5-3.7,1.3-7.4,2.2-11.4l3.8-15.2h8.5l-10.7,34.2h-8l-4.1-13.9c-1.1-3.6-1.8-6.8-2.6-11h-0.1
			c-0.8,4.2-1.6,7.6-2.6,11l-4.4,13.9h-8.1l-10.1-34.2H49.1z"/>
		<path fill="#FFFFFF" d="M102.9,326.2l3.5,15.5c0.8,3.7,1.6,7.4,2.2,11.1h0.1c0.7-3.7,1.8-7.5,2.7-11l4.5-15.6h7l4.3,15.2
			c1.1,4,2,7.7,2.7,11.4h0.1c0.5-3.7,1.3-7.4,2.2-11.4l3.8-15.2h8.5L134,360.4h-8l-4.1-13.9c-1.1-3.6-1.8-6.8-2.6-11h-0.1
			c-0.8,4.2-1.6,7.6-2.6,11l-4.4,13.9h-8.1L94,326.2H102.9z"/>
		<path fill="#FFFFFF" d="M156.7,326.2l3.5,15.5c0.8,3.7,1.6,7.4,2.2,11.1h0.1c0.7-3.7,1.8-7.5,2.7-11l4.5-15.6h7l4.3,15.2
			c1.1,4,2,7.7,2.7,11.4h0.1c0.5-3.7,1.3-7.4,2.2-11.4l3.8-15.2h8.5l-10.7,34.2h-8l-4.1-13.9c-1.1-3.6-1.8-6.8-2.6-11H173
			c-0.8,4.2-1.6,7.6-2.6,11l-4.4,13.9h-8.1l-10.1-34.2H156.7z"/>
		<path fill="#FFFFFF" d="M200,355.6c0-3.2,2.2-5.6,5.3-5.6c3.2,0,5.3,2.3,5.3,5.6c0,3.2-2.1,5.6-5.4,5.6
			C202.2,361.1,200,358.7,200,355.6z"/>
		<path fill="#FFFFFF" d="M217.6,336.3c0-3.9-0.1-7.2-0.3-10.2h7.4l0.4,5h0.2c1.6-2.7,4.7-5.8,10.5-5.8c4.5,0,8,2.5,9.5,6.3h0.1
			c1.2-1.9,2.6-3.3,4.1-4.3c2-1.3,4.1-2,7-2c5.6,0,11.4,3.9,11.4,14.8v20.2h-8.4v-18.9c0-5.7-2-9.1-6.1-9.1c-3,0-5.1,2.1-6,4.6
			c-0.3,0.8-0.4,1.9-0.4,2.9v20.5h-8.4v-19.8c0-4.8-1.9-8.1-5.9-8.1c-3.2,0-5.4,2.5-6.3,4.8c-0.3,0.9-0.4,1.9-0.4,2.9v20.2h-8.4
			V336.3z"/>
		<path fill="#FFFFFF" d="M276.9,352.3c1.9,1.2,5.6,2.5,8.7,2.5c3.8,0,5.5-1.6,5.5-3.9c0-2.3-1.4-3.4-5.6-5c-6.7-2.2-9.4-5.9-9.4-10
			c0-6,5-10.7,12.9-10.7c3.8,0,7.1,0.9,9.1,2l-1.7,6c-1.4-0.8-4.2-2-7.2-2c-3.1,0-4.8,1.5-4.8,3.7c0,2.2,1.6,3.1,6,4.8
			c6.3,2.2,9.1,5.3,9.1,10.4c0,6.2-4.9,10.7-13.9,10.7c-4.1,0-7.9-1-10.4-2.4L276.9,352.3z"/>
		<path fill="#FFFFFF" d="M331.7,359.3c-1.8,0.8-5.4,1.7-9.7,1.7c-10.7,0-17.6-6.9-17.6-17.5c0-10.2,7-18.2,19-18.2
			c3.2,0,6.4,0.7,8.4,1.6l-1.6,6.5c-1.4-0.7-3.4-1.3-6.5-1.3c-6.6,0-10.5,4.8-10.5,11.1c0,7,4.6,11,10.5,11c2.9,0,5.1-0.6,6.8-1.3
			L331.7,359.3z"/>
		<path fill="#FFFFFF" d="M336.5,355.6c0-3.2,2.2-5.6,5.3-5.6c3.2,0,5.3,2.3,5.3,5.6c0,3.2-2.1,5.6-5.4,5.6
			C338.7,361.1,336.5,358.7,336.5,355.6z"/>
		<path fill="#FFFFFF" d="M386.7,342.9c0,12.6-8.9,18.2-17.6,18.2c-9.6,0-17.1-6.6-17.1-17.6c0-11.2,7.4-18.1,17.7-18.1
			C379.9,325.4,386.7,332.6,386.7,342.9z M360.9,343.3c0,6.6,3.3,11.6,8.5,11.6c4.9,0,8.4-4.8,8.4-11.7c0-5.3-2.4-11.5-8.3-11.5
			C363.4,331.6,360.9,337.6,360.9,343.3z"/>
		<path fill="#FFFFFF" d="M393.8,337.2c0-4.6-0.1-8-0.3-11h7.4l0.4,6.4h0.2c1.7-4.8,5.7-7.2,9.4-7.2c0.8,0,1.3,0.1,2,0.2v8.1
			c-0.8-0.1-1.5-0.2-2.6-0.2c-4.1,0-6.9,2.6-7.7,6.5c-0.1,0.8-0.2,1.7-0.2,2.6v17.8h-8.6V337.2z"/>
		<path fill="#FFFFFF" d="M449.2,355.4c0,7.2-1.5,12.3-5,15.5c-3.5,3.1-8.5,4.1-13.2,4.1c-4.4,0-9-1-11.9-2.7l1.9-6.5
			c2.2,1.3,5.8,2.6,10,2.6c5.6,0,9.8-3,9.8-10.3v-2.9h-0.1c-2,3-5.4,5-10,5c-8.5,0-14.5-7-14.5-16.7c0-11.2,7.3-18,15.5-18
			c5.3,0,8.3,2.5,9.9,5.3h0.1l0.3-4.6h7.5c-0.1,2.3-0.3,5.1-0.3,9.8V355.4z M440.6,339.8c0-0.8-0.1-1.6-0.3-2.3
			c-0.9-3.2-3.4-5.6-7-5.6c-4.9,0-8.4,4.2-8.4,11.2c0,5.8,2.9,10.5,8.3,10.5c3.2,0,6-2.1,7-5.3c0.3-0.8,0.4-2,0.4-3V339.8z"/>
	</g>
	<g>
		<path fill="#FFFFFF" d="M113.3,280.2c-0.4-9.4-0.7-20.8-0.7-32.2h-0.2c-2.6,10-5.8,21.2-8.8,30.4L94,308.9H80.1l-8.4-30.2
			c-2.6-9.3-5.1-20.5-7.1-30.7h-0.2c-0.3,10.6-0.8,22.7-1.3,32.5l-1.5,29.8H45.2l5-78.4h23.6l7.7,26.2c2.6,9.1,4.9,18.9,6.6,28h0.5
			c2.1-9.1,4.8-19.4,7.4-28.2l8.3-26.1h23.3l4.2,78.4h-17.2L113.3,280.2z"/>
		<path fill="#FFFFFF" d="M141.4,292c4.6,2.4,12.1,4.9,19.7,4.9c8.1,0,12.5-3.4,12.5-8.5c0-4.9-3.7-7.7-13.2-10.9
			c-13-4.7-21.6-11.9-21.6-23.3c0-13.4,11.3-23.5,29.7-23.5c9,0,15.4,1.7,20,3.9l-4,14.2c-3-1.5-8.7-3.7-16.3-3.7
			c-7.7,0-11.4,3.6-11.4,7.6c0,5,4.3,7.2,14.5,11.1c13.9,5.1,20.3,12.3,20.3,23.4c0,13.2-10,24.3-31.5,24.3c-9,0-17.8-2.4-22.2-4.9
			L141.4,292z"/>
		<path fill="#FFFFFF" d="M256.4,308.1c-3.1,1.5-10.6,3.4-20,3.4c-27.1,0-41.1-17-41.1-39.3c0-26.8,19.1-41.5,42.8-41.5
			c9.2,0,16.2,1.7,19.3,3.5l-3.7,14c-3.5-1.5-8.5-2.9-14.9-2.9c-14,0-24.9,8.5-24.9,26c0,15.7,9.3,25.6,25,25.6
			c5.5,0,11.3-1,14.9-2.6L256.4,308.1z"/>
	</g>
	<g>
		<path fill="#FFFFFF" d="M81.3,72.6c-2.2,1.1-7,2.3-13.3,2.3c-16.2,0-26.1-10.1-26.1-25.8c0-16.8,11.7-27,27.4-27
			c6.1,0,10.5,1.3,12.4,2.3l-2,7.4c-2.4-1.1-5.8-2-10-2c-10.4,0-17.9,6.5-17.9,18.8c0,11.3,6.5,18.4,17.8,18.4
			c3.7,0,7.7-0.8,10.2-1.8L81.3,72.6z"/>
		<path fill="#FFFFFF" d="M117.8,51.3H98.6v15h21.5V74H89.2V22.9h29.7v7.6H98.6v13.2h19.3V51.3z"/>
		<path fill="#FFFFFF" d="M128.3,23.7c3.6-0.7,8.7-1.1,14.1-1.1c7.4,0,12.3,1.2,15.8,4.1c2.8,2.4,4.4,5.9,4.4,10.3
			c0,6.6-4.5,11-9.3,12.7v0.2c3.7,1.4,5.9,4.9,7.1,9.9c1.7,6.4,3,12.3,4,14.2h-9.6c-0.8-1.5-2-5.7-3.4-12c-1.5-6.7-3.9-8.8-9.2-8.9
			h-4.7v21h-9.2V23.7z M137.5,46.2h5.5c6.3,0,10.2-3.3,10.2-8.4c0-5.5-3.9-8.2-9.9-8.2c-3,0-4.9,0.2-5.8,0.5V46.2z"/>
		<path fill="#FFFFFF" d="M181.6,30.7H167v-7.8h38.6v7.8h-14.7V74h-9.3V30.7z"/>
		<path fill="#FFFFFF" d="M220.9,22.9V74h-9.3V22.9H220.9z"/>
		<path fill="#FFFFFF" d="M231.6,22.9h29.6v7.6h-20.2v14.1h18.8v7.6h-18.8V74h-9.3V22.9z"/>
		<path fill="#FFFFFF" d="M279.5,22.9V74h-9.3V22.9H279.5z"/>
		<path fill="#FFFFFF" d="M318.8,51.3h-19.3v15h21.5V74h-30.8V22.9h29.7v7.6h-20.4v13.2h19.3V51.3z"/>
		<path fill="#FFFFFF" d="M329.3,23.7c3.6-0.7,8.7-1.1,14.1-1.1c7.4,0,12.3,1.2,15.8,4.1c2.8,2.4,4.4,5.9,4.4,10.3
			c0,6.6-4.5,11-9.3,12.7v0.2c3.7,1.4,5.9,4.9,7.1,9.9c1.7,6.4,3,12.3,4,14.2h-9.6c-0.8-1.5-2-5.7-3.4-12c-1.5-6.7-3.9-8.8-9.2-8.9
			h-4.7v21h-9.2V23.7z M338.5,46.2h5.5c6.3,0,10.2-3.3,10.2-8.4c0-5.5-3.9-8.2-9.9-8.2c-3,0-4.9,0.2-5.8,0.5V46.2z"/>
		<path fill="#FFFFFF" d="M383.2,59.5L378.8,74h-9.6l16.4-51.1h11.9L414,74h-10.1l-4.6-14.5H383.2z M397.8,52.5l-4-12.6
			c-1-3.1-1.8-6.6-2.6-9.6H391c-0.8,3-1.6,6.5-2.4,9.6l-3.9,12.6H397.8z"/>
		<path fill="#FFFFFF" d="M424.8,30.7h-14.6v-7.8h38.6v7.8h-14.7V74h-9.3V30.7z"/>
	</g>
	<g>
		<path fill="#FFFFFF" d="M54,94.3v20.4h21.6V94.3h9.3v51.1h-9.3v-22.5H54v22.5h-9.3V94.3H54z"/>
		<path fill="#FFFFFF" d="M105.8,130.9l-4.4,14.5h-9.6l16.4-51.1h11.9l16.6,51.1h-10.1l-4.6-14.5H105.8z M122.4,85.2
			c0,3.9-3.2,7-8.1,7c-5.1,0-8.3-3.2-8.3-7c0-3.9,3-7.2,8.3-7.2C119.6,78,122.4,81.1,122.4,85.2z M120.5,123.8l-4-12.6
			c-1-3.1-1.8-6.6-2.6-9.6h-0.1c-0.8,3-1.6,6.5-2.4,9.6l-3.9,12.6H120.5z M110.8,85.2c0,1.8,1.4,3.6,3.4,3.6c2.2,0,3.6-1.7,3.6-3.7
			s-1.4-3.8-3.6-3.8C112,81.3,110.8,83.2,110.8,85.2z"/>
		<path fill="#FFFFFF" d="M143.8,94.3h9.3v43.3h21v7.8h-30.3V94.3z"/>
		<path fill="#FFFFFF" d="M181.2,94.3h9.3v43.3h21v7.8h-30.3V94.3z"/>
		<path fill="#FFFFFF" d="M218.6,95c3-0.6,8.3-1.1,13.6-1.1c6.8,0,11.1,0.9,14.6,3.3c3.2,1.9,5.3,5.2,5.3,9.6c0,4.7-3,8.9-8.5,11
			v0.2c5.4,1.4,10.3,5.6,10.3,12.6c0,4.5-2,8.1-4.9,10.6c-3.6,3.1-9.6,4.7-19,4.7c-5.1,0-9-0.4-11.4-0.7V95z M227.8,115.2h4.8
			c6.5,0,10.1-3,10.1-7.4c0-4.8-3.6-7-9.5-7c-2.7,0-4.3,0.1-5.3,0.4V115.2z M227.8,138.6c1.2,0.2,2.8,0.2,4.9,0.2
			c6,0,11.4-2.2,11.4-8.5c0-6-5.2-8.4-11.7-8.4h-4.6V138.6z"/>
		<path fill="#FFFFFF" d="M272.2,130.9l-4.4,14.5h-9.6l16.4-51.1h11.9l16.6,51.1H293l-4.6-14.5H272.2z M286.9,123.8l-4-12.6
			c-1-3.1-1.8-6.6-2.6-9.6h-0.1c-0.8,3-1.6,6.5-2.4,9.6l-3.9,12.6H286.9z"/>
		<path fill="#FFFFFF" d="M310.2,95c3.6-0.7,8.7-1.1,14.1-1.1c7.4,0,12.3,1.2,15.8,4.1c2.8,2.4,4.4,5.9,4.4,10.3
			c0,6.6-4.5,11.1-9.3,12.7v0.2c3.7,1.4,5.9,4.9,7.1,9.9c1.7,6.4,3,12.3,4,14.2h-9.6c-0.8-1.5-2-5.7-3.4-12.1
			c-1.5-6.7-3.9-8.8-9.2-8.9h-4.7v21h-9.2V95z M319.5,117.5h5.5c6.3,0,10.2-3.3,10.2-8.4c0-5.5-3.9-8.2-9.9-8.2
			c-3,0-4.9,0.2-5.8,0.4V117.5z"/>
		<path fill="#FFFFFF" d="M363.5,102.1H349v-7.8h38.6v7.8h-14.7v43.3h-9.3V102.1z"/>
	</g>
	<g>
		<path fill="#FFFFFF" d="M44.7,159.7h29.6v7.6H54v14.1h18.8v7.6H54v21.7h-9.3V159.7z"/>
		<path fill="#FFFFFF" d="M92.6,159.7v51.1h-9.3v-51.1H92.6z"/>
		<path fill="#FFFFFF" d="M103.1,200.7c3,1.7,7.6,3.3,12.4,3.3c5.9,0,9.3-2.8,9.3-7c0-3.9-2.6-6.1-9-8.5c-8.5-3-13.9-7.5-13.9-14.9
			c0-8.4,7-14.7,18.1-14.7c5.5,0,9.6,1.2,12.2,2.6l-2.2,7.5c-1.9-1-5.5-2.4-10.2-2.4c-5.9,0-8.4,3.1-8.4,6.1c0,3.9,3,5.8,9.8,8.4
			c8.9,3.3,13.1,7.8,13.1,15.2c0,8.3-6.2,15.4-19.3,15.4c-5.5,0-11.1-1.5-13.9-3.3L103.1,200.7z"/>
		<path fill="#FFFFFF" d="M142.6,159.7h9.2v23.5h0.2c1.2-2,2.5-3.8,3.7-5.5l13.4-18h11.4l-17.6,21.8l18.7,29.3h-10.9l-14.4-23.4
			l-4.6,5.4v18h-9.2V159.7z"/>
		<path fill="#FFFFFF" d="M215.3,188.2h-19.3v15h21.5v7.6h-30.8v-51.1h29.7v7.6h-20.4v13.2h19.3V188.2z"/>
	</g>
</g>
</svg>
